Coordinates
version=1
nRows=65
nColumns=12
inDegrees=yes

Units are S.I. units (second, meters, Newtons, ...)
Angles are in degrees

endheader
time	SC_y	SC_z	SC_x	AC_y	AC_z	AC_x	GH_y	GH_z	GH_yy	EL_x	PS_y
       0.0              -15.12          13.79           20.2          41.28         -5.104         -8.225         -6.797           3.17         -44.09          36.73          92.86
   0.01567              -15.12          13.79           20.2          41.28         -5.106         -8.223         -6.797          3.176          -44.1          36.72          92.85
   0.03133              -15.12          13.79          20.21          41.28         -5.108         -8.221         -6.796          3.184         -44.11          36.72          92.84
     0.047              -15.12          13.79          20.21          41.29          -5.11         -8.219         -6.795          3.192         -44.12          36.72          92.83
   0.06266              -15.12          13.79          20.21          41.29         -5.112         -8.217         -6.794            3.2         -44.14          36.72          92.82
   0.07833              -15.12          13.79          20.22           41.3         -5.115         -8.214         -6.793          3.209         -44.15          36.72           92.8
   0.09399              -15.13          13.79          20.22           41.3         -5.117         -8.212         -6.792          3.218         -44.17          36.71          92.79
    0.1097              -15.13          13.78          20.23           41.3          -5.12         -8.209         -6.791          3.228         -44.18          36.71          92.77
    0.1253              -15.13          13.78          20.24          41.31         -5.123         -8.206          -6.79          3.239          -44.2          36.71          92.76
     0.141              -15.13          13.78          20.24          41.31         -5.126         -8.203         -6.789          3.251         -44.22          36.71          92.74
    0.1567              -15.13          13.78          20.25          41.32          -5.13         -8.199         -6.788          3.263         -44.24           36.7          92.72
    0.1723              -15.13          13.78          20.26          41.33         -5.134         -8.195         -6.786          3.277         -44.26           36.7           92.7
     0.188              -15.13          13.77          20.26          41.33         -5.138         -8.191         -6.785          3.291         -44.28          36.69          92.68
    0.2037              -15.13          13.77          20.27          41.34         -5.142         -8.187         -6.783          3.307         -44.31          36.69          92.66
    0.2193              -15.13          13.77          20.28          41.35         -5.147         -8.182         -6.782          3.324         -44.33          36.69          92.63
     0.235              -15.14          13.77          20.29          41.36         -5.152         -8.177          -6.78          3.342         -44.36          36.68           92.6
    0.2506              -15.14          13.76           20.3          41.36         -5.158         -8.172         -6.778          3.362         -44.39          36.68          92.57
    0.2663              -15.14          13.76          20.31          41.37         -5.164         -8.166         -6.776          3.384         -44.43          36.67          92.54
     0.282              -15.14          13.76          20.33          41.39          -5.17         -8.159         -6.773          3.407         -44.47          36.66          92.51
    0.2976              -15.14          13.75          20.34           41.4         -5.178         -8.152         -6.771          3.433         -44.51          36.66          92.47
    0.3133              -15.15          13.75          20.35          41.41         -5.186         -8.144         -6.768          3.462         -44.55          36.65          92.42
     0.329              -15.15          13.74          20.37          41.42         -5.194         -8.135         -6.764          3.493          -44.6          36.64          92.38
    0.3446              -15.15          13.74          20.39          41.44         -5.204         -8.126         -6.761          3.528         -44.66          36.63          92.33
    0.3603              -15.16          13.73          20.41          41.46         -5.215         -8.115         -6.757          3.566         -44.72          36.62          92.27
     0.376              -15.16          13.73          20.43          41.48         -5.227         -8.103         -6.753          3.609         -44.79          36.61           92.2
    0.3916              -15.16          13.72          20.46           41.5          -5.24          -8.09         -6.748          3.656         -44.86           36.6          92.13
    0.4073              -15.17          13.71          20.49          41.52         -5.255         -8.075         -6.742           3.71         -44.95          36.58          92.05
     0.423              -15.17           13.7          20.52          41.55         -5.272         -8.058         -6.736           3.77         -45.04          36.57          91.96
    0.4386              -15.18          13.69          20.56          41.58         -5.291         -8.039          -6.73          3.838         -45.15          36.55          91.86
    0.4543              -15.19          13.68           20.6          41.62         -5.312         -8.018         -6.722          3.915         -45.28          36.53          91.75
      0.47              -15.19          13.66          20.64          41.65         -5.337         -7.994         -6.713          4.002         -45.42          36.51          91.62
    0.4856               -15.2          13.65           20.7           41.7         -5.365         -7.966         -6.703          4.103         -45.58          36.48          91.46
    0.5013              -15.21          13.63          20.76          41.75         -5.398         -7.933         -6.691           4.22         -45.76          36.45          91.29
     0.517              -15.22          13.61          20.83          41.81         -5.436         -7.896         -6.677          4.355         -45.98          36.41          91.09
    0.5326              -15.24          13.58          20.92          41.89          -5.48         -7.852         -6.661          4.513         -46.23          36.37          90.85
    0.5483              -15.25          13.56          21.02          41.97         -5.532           -7.8         -6.642            4.7         -46.53          36.32          90.57
     0.564              -15.27          13.52          21.13          42.07         -5.594         -7.738          -6.62          4.922         -46.88          36.26          90.24
    0.5796               -15.3          13.48          21.28          42.19         -5.669         -7.664         -6.593          5.187         -47.31          36.19          89.84
    0.5953              -15.33          13.43          21.45          42.34         -5.759         -7.575          -6.56          5.509         -47.82          36.11          89.36
     0.611              -15.36          13.37          21.66          42.51         -5.869         -7.466          -6.52          5.902         -48.45          36.01          88.78
    0.6266               -15.4          13.29          21.92          42.73         -6.005         -7.331         -6.471          6.387         -49.22          35.88          88.05
    0.6423              -15.46           13.2          22.24          43.01         -6.174         -7.163          -6.41          6.991         -50.18          35.72          87.15
     0.658              -15.52          13.08          22.65          43.35         -6.388         -6.952         -6.332          7.753          -51.4          35.52          86.01
    0.6736              -15.61          12.93          23.16          43.79         -6.659         -6.683         -6.234          8.721         -52.94          35.26          84.56
    0.6893              -15.72          12.74          23.83          44.35         -7.006         -6.338         -6.109           9.96         -54.92          34.93          82.71
     0.705              -15.85          12.49          24.68          45.07         -7.452         -5.896         -5.947          11.55         -57.45          34.51          80.33
    0.7206              -16.03          12.18          25.76          45.99         -8.021         -5.332         -5.741          13.58         -60.69          33.98           77.3
    0.7363              -16.26          11.78          27.12          47.15         -8.736         -4.622         -5.482          16.14         -64.77           33.3          73.48
    0.7519              -16.53           11.3          28.79          48.56         -9.608         -3.758         -5.167          19.25         -69.73          32.48          68.83
    0.7676              -16.85          10.74          30.71          50.19         -10.62         -2.755         -4.801          22.86         -75.49          31.53          63.44
    0.7833              -17.19          10.14           32.8          51.96         -11.71          -1.67         -4.405          26.76         -81.72           30.5           57.6
    0.7989              -17.53           9.53          34.89          53.73         -12.81        -0.5844         -4.009          30.67         -87.95          29.47          51.76
    0.8146              -17.85           8.97          36.81          55.36         -13.82         0.4181         -3.643          34.28          -93.7          28.52          46.36
    0.8303              -18.12          8.488          38.48          56.77         -14.69          1.283         -3.327          37.39         -98.66           27.7          41.71
    0.8459              -18.34          8.092          39.84          57.92         -15.41          1.993         -3.068          39.94         -102.7          27.02          37.89
    0.8616              -18.52          7.777          40.93          58.84         -15.97          2.557         -2.862          41.97         -106.0          26.49          34.86
    0.8773              -18.66           7.53          41.78          59.56         -16.42          2.999         -2.701          43.57         -108.5          26.07          32.48
    0.8929              -18.77          7.338          42.44          60.12         -16.77          3.343         -2.575           44.8         -110.5          25.74          30.63
    0.9086              -18.85          7.188          42.95          60.56         -17.04          3.612         -2.477          45.77         -112.0          25.48          29.18
    0.9243              -18.92           7.07          43.36          60.91         -17.25          3.824           -2.4          46.53         -113.2          25.28          28.04
    0.9399              -18.97          6.976          43.68          61.18         -17.42          3.992         -2.338          47.14         -114.2          25.12          27.14
    0.9556              -19.01          6.901          43.94           61.4         -17.56          4.126         -2.289          47.62         -115.0          24.99          26.42
    0.9713              -19.05           6.84          44.15          61.58         -17.67          4.236         -2.249          48.02         -115.6          24.89          25.83
    0.9869              -19.08           6.79          44.33          61.72         -17.76          4.325         -2.217          48.34         -116.1          24.81          25.35
     1.003               -19.1          6.749          44.47          61.84         -17.83          4.399          -2.19           48.6         -116.5          24.74          24.95
